<?xml version="1.0" encoding="UTF-8"?>
<svg id="Layer_2" data-name="Layer 2" xmlns="http://www.w3.org/2000/svg" viewBox="0 0 2150.42 533.92">
  <defs>
    <style>
      .cls-1 {
        fill: #c9dee2;
      }
    </style>
  </defs>
  <g id="Layer_1-2" data-name="Layer 1">
    <g>
      <path class="cls-1" d="M999.18,213.79c0,.64.02,1.28.04,1.91h-.06c0-.64,0-1.27.02-1.91Z"/>
      <path class="cls-1" d="M1212.96,4.7v.08c-1-.03-1.78-.05-2.67-.06.89,0,1.67-.02,2.67-.02Z"/>
      <path class="cls-1" d="M999.16,211.32h.06c-.03,1-.04,1.75-.04,2.62-.02-.88-.02-1.62-.02-2.62Z"/>
      <path class="cls-1" d="M1199.99,414.87h0s-.36.01-.36.01c.12,0,.24,0,.36-.01Z"/>
      <path class="cls-1" d="M1199.63,414.88h-.9.9Z"/>
      <path class="cls-1" d="M1334.03,364.29c-18,15.75-38.85,28.4-61.71,37.11-22.48,8.58-46.9,13.32-72.33,13.47-.12.01-.24.01-.36.01-.3,0-.6,0-.9-.01-20.35-.12-40.06-3.33-58.6-9.19-18.93-5.98-36.64-14.72-52.66-25.72-32.05-22.02-57.4-53.1-72.6-89.67-9.57-23.03-15.2-48.25-15.76-74.59-.02-.63-.15-1.27-.15-1.91v-.08c0-.87.12-1.75.15-2.62.43-20.22,3.81-39.8,9.65-58.28,6.28-19.88,15.49-38.48,27.06-55.32,23.13-33.67,55.8-60.31,94.22-76.28,24.04-9.99,50.36-15.97,77.84-16.64.88-.03,1.77-.25,2.65-.25h.09c.89,0,1.78.23,2.67.26,20.3.54,39.93,4.25,58.35,10.49,20.04,6.8,38.66,16.75,55.28,29.17l-34.12,45.69c-11.92-8.9-25.2-15.95-39.46-20.78-13.46-4.57-27.8-7.15-42.79-7.42-15.41.25-30.21,2.66-44.17,6.93-14.77,4.51-28.61,11.1-41.15,19.43-25.1,16.66-44.97,40.24-56.81,67.8-7.58,17.64-11.9,36.89-12.24,57.25.19,14.59,2.45,28.59,6.48,41.78,4.21,13.81,10.37,26.73,18.15,38.45,15.56,23.44,37.59,42.01,63.32,53.06,16.98,7.29,35.55,11.36,55.21,11.45,18.67-.07,36.37-3.53,52.68-9.74,16.48-6.28,31.51-15.4,44.48-26.75l37.53,42.9Z"/>
      <path class="cls-1" d="M1210.6,4.72c-.88.01-1.64.02-2.64.05v-.07c1,0,1.76.01,2.64.02Z"/>
      <rect class="cls-1" x="129.38" y="235.35" width=".05" height=".98"/>
      <rect class="cls-1" x="129.38" y="235.35" width=".05" height=".98"/>
      <path class="cls-1" d="M258.64,298.74l-.05,1.02v.33c0,12.39-2.05,24.54-5.93,35.81-3.91,11.36-9.58,21.94-16.69,31.45-14.22,19.01-34.03,33.78-57.1,42.6-15.25,5.82-32.29,9.03-49.29,9.08v.16c-18,0-34.38-3.21-49.75-9.08-23.07-8.82-42.89-23.59-57.11-42.61-7.1-9.5-12.79-20.51-16.7-31.87-3.91-11.36-6.02-22.44-6.02-36.44h57.5c.01,10,1.88,16.89,5.33,24.29,2.59,5.55,6.09,10.98,10.41,15.7,6.46,7.09,14.99,13.15,24.56,17.32,9.44,4.11,19.78,6.58,31.78,6.63v-.14c11,0,22.22-2.38,31.79-6.55,9.57-4.16,17.74-10.11,24.21-17.21,4.31-4.72,7.76-10.28,10.35-15.83,3.45-7.41,5.26-14.21,5.27-24.21h.02c-.04-6-1.14-13.21-3.08-18.85-1.98-5.71-4.88-10.97-8.63-15.97-7.49-10.01-18.36-18.21-31.48-23.21-8.74-3.31-18.45-4.82-28.45-4.83v-1.05.91h-46v-56h45v-.27c10,0,19.4-1.56,28.02-4.83,12.94-4.91,23.66-13.07,31.05-22.92,3.7-4.92,6.52-9.88,8.47-15.49,1.91-5.55,2.96-12.49,2.99-18.49h-.01c0-10-1.85-16.6-5.26-23.88-2.55-5.46-6.01-10.79-10.26-15.44-6.38-6.97-14.77-12.93-24.21-17.03-9.44-4.1-19.79-6.54-31.79-6.54v-.14c-11,.05-21.58,2.38-30.89,6.43-9.43,4.1-17.5,9.96-23.88,16.93-4.25,4.66-7.65,9.76-10.21,15.21-3.4,7.28-5.2,14.46-5.2,23.46H.73c0-13,2.08-24.24,5.93-35.41,3.85-11.19,9.46-21.58,16.47-30.93,14.02-18.72,33.61-33.24,56.35-41.91C94.64,3.15,111.59-.01,128.59,0v.15c17,.05,33.52,3.21,48.55,8.94,22.74,8.67,42.27,23.2,56.29,41.92,7,9.35,12.52,19.76,16.37,30.95,3.83,11.09,5.79,23.04,5.79,35.24v.31l.1,1.01c0,16.37-3.68,32.1-10.33,46.23-4.99,10.61-11.58,20.33-19.48,28.94-4.41,4.8-9.22,9.28-14.39,13.35,6.1,4.6,11.77,9.73,16.88,15.32,8.01,8.74,14.71,18.62,19.77,29.41,6.75,14.36,10.52,30.35,10.51,46.98Z"/>
      <polyline class="cls-1" points="1703.12 533.92 1703.12 118.57 1646.12 118.57 1646.12 533.92"/>
      <path class="cls-1" d="M1795.99,417.39c82.52,0,149.41-66.89,149.41-149.41s-66.89-149.41-149.41-149.41-149.41,66.89-149.41,149.41,66.89,149.41,149.41,149.41ZM1795.99,175.11c51.29,0,92.87,41.58,92.87,92.87s-41.58,92.87-92.87,92.87-92.87-41.58-92.87-92.87,41.58-92.87,92.87-92.87Z"/>
      <path class="cls-1" d="M388.43,266.47c0,82.52,66.89,149.41,149.41,149.41s149.41-66.89,149.41-149.41-66.89-149.41-149.41-149.41-149.41,66.89-149.41,149.41ZM444.97,266.47c0-51.29,41.58-92.87,92.87-92.87s92.87,41.58,92.87,92.87-41.58,92.87-92.87,92.87-92.87-41.58-92.87-92.87Z"/>
      <path class="cls-1" d="M753.53,115.85v299.02h58.61c-1.41-110.21-6.41-297.77.64-299.03"/>
      <polyline class="cls-1" points="705.42 173.1 862.64 173.1 862.64 116.1 705.42 116.1"/>
      <path class="cls-1" d="M882.62.48c-63.49,7.18-114.93,54.14-128.77,115.37h58.93c11.38-29.85,37.72-52.29,69.84-58.23V.48Z"/>
      <path class="cls-1" d="M1543.38,308.35c-.14-69.72-.17-134.91,0-191.98h54.22v191.98"/>
      <path class="cls-1" d="M1382.67,309.77c-.14-70.06-.16-135.56,0-192.91h54.21v192.91"/>
      <path class="cls-1" d="M1543.28,307.35c0,29.38-23.82,53.2-53.2,53.2s-53.2-23.82-53.2-53.2h-54.32c0,59.38,48.14,107.52,107.52,107.52s107.52-48.14,107.52-107.52h-54.32Z"/>
      <path class="cls-1" d="M2054.69,416.43c-11.74-.72-23.34-3.63-34.06-8.69-24.3-11.53-40.21-30.48-48.67-57.97l49.13-14.76c4.27,13.86,10.56,21.67,21.72,26.97,9.98,4.71,21.75,5.2,32.26,1.32,9.57-3.53,16.91-10.18,20.68-18.72l.21-.46c7.06-15.2,1.06-34.89-13.39-43.9l-.45-.29c-6.62-4.32-15.94-7.29-25.81-10.43-10.55-3.35-22.49-7.15-33.58-13.49-38.4-21.03-55.1-68.36-38.11-108.04,8.85-21.64,26.19-38.46,48.85-47.38,23.51-9.26,50.15-8.59,73.08,1.84,19.9,9.12,34.65,23.58,43.89,43.02l-46.48,21.57c-4.14-8.71-9.98-14.42-18.94-18.53-10.14-4.61-22.02-4.9-32.52-.77-9.55,3.76-16.76,10.64-20.3,19.38l-.23.55c-6.74,15.58.48,35.75,15.78,44.05l.57.32c6.36,3.66,14.8,6.34,23.74,9.19,12.07,3.84,25.73,8.18,38.17,16.25,17.58,11.04,30.55,28.19,36.51,48.32,5.89,19.89,4.48,40.93-3.98,59.29-9.4,21.17-27.05,37.42-49.71,45.77-12.31,4.54-25.41,6.39-38.33,5.59Z"/>
    </g>
  </g>
</svg>