<?xml version="1.0" encoding="UTF-8"?>
<svg id="Layer_2" data-name="Layer 2" xmlns="http://www.w3.org/2000/svg" viewBox="0 0 1687.84 411">
  <defs>
    <style>
      .cls-1 {
        fill: #c9dee2;
      }
    </style>
  </defs>
  <g id="Layer_1-2" data-name="Layer 1">
    <g>
      <path class="cls-1" d="M1009.78,200s0,1.4-.02,2.1c0-.7-.02-2.1-.04-2.1h.06Z"/>
      <path class="cls-1" d="M1009.78,204h-.06c.03-1,.04-1.75.04-2.62.01.87.02,1.62.02,2.62Z"/>
      <path class="cls-1" d="M1009.69,199.56c-.59-26.28-6.09-51.46-15.65-74.45-15.19-36.56-40.54-67.64-72.58-89.66-16.03-11.01-33.74-19.75-52.66-25.73-18.73-5.92-38.65-8.89-59.22-8.95-.22-.01-.43.23-.65.23h-110.23v410h96.94c1.12,0,2.23-.23,3.35-.25,28.22-.42,55.23-6.35,79.87-16.59,38.42-15.97,71.08-42.66,94.22-76.34,11.56-16.83,20.74-35.47,27.02-55.35,5.83-18.44,9.13-37.98,9.58-58.15.03-.87.01-1.76.01-2.63v-.03c0-.7,0-1.4-.01-2.1ZM940.52,259.38c-11.84,27.55-31.72,51.13-56.81,67.79-12.55,8.33-26.38,15.14-41.16,19.66-14.78,4.51-30.5,7.17-46.9,7.17h-39.94V58h53.88c19.66,0,38.24,3.92,55.21,11.21,25.73,11.06,47.76,29.5,63.32,52.95,7.78,11.71,13.94,24.58,18.16,38.38,4.01,13.17,6.27,27.1,6.48,41.66-.35,20.34-4.67,39.55-12.24,57.18Z"/>
      <path class="cls-1" d="M809.59.52h-.65.65Z"/>
      <path class="cls-1" d="M798.71,410.53v.47h-3.06c1.12,0,2.06-.45,3.06-.47Z"/>
    </g>
    <path class="cls-1" d="M625.92,127.04c-14.94-36.65-39.88-67.89-71.5-90.07-15.81-11.09-33.3-19.91-52.02-25.96-18.71-6.04-38.64-9.3-59.21-9.29-27.43-.01-53.71,5.79-77.5,16.24-35.7,15.69-65.83,41.74-87.07,74.37-10.62,16.32-19.02,34.3-24.76,53.47-5.75,19.17-8.83,39.54-8.83,60.56,0,28.03,5.49,54.88,15.44,79.31,14.94,36.65,39.88,67.89,71.5,90.08,15.81,11.09,33.3,19.91,52.01,25.95,18.71,6.05,38.64,9.3,59.21,9.3,27.43.01,53.71-5.79,77.5-16.25,35.71-15.68,65.84-41.74,87.08-74.37,10.62-16.31,19.01-34.29,24.76-53.46,5.74-19.17,8.83-39.54,8.82-60.56.01-28.03-5.48-54.89-15.43-79.32ZM573.13,264.17c-10.82,26.57-28.91,49.12-51.44,64.91-11.27,7.91-23.64,14.13-36.8,18.38-13.17,4.25-27.13,6.54-41.7,6.54-19.42-.01-37.77-4.06-54.58-11.44-12.59-5.53-24.3-12.94-34.79-21.92-15.74-13.48-28.7-30.51-37.71-49.92-9-19.41-14.07-41.18-14.08-64.36.01-20.61,4.01-40.09,11.23-57.81,10.82-26.57,28.9-49.12,51.44-64.92,11.27-7.9,23.64-14.12,36.8-18.37,13.17-4.25,27.12-6.54,41.69-6.54,19.42,0,37.78,4.06,54.58,11.43,12.6,5.54,24.31,12.95,34.8,21.93,15.73,13.48,28.7,30.5,37.7,49.91,9.01,19.42,14.08,41.19,14.08,64.37,0,20.6-4.01,40.09-11.22,57.81Z"/>
    <g>
      <path class="cls-1" d="M127.66,211.52c5.49-1.29,10.82-2.95,15.97-4.97,20.17-7.92,37.53-21.18,50.01-38.29,6.24-8.56,11.25-18.09,14.68-28.34,3.45-10.25,5.31-21.22,5.31-32.5,0-15.04-3.32-29.51-9.25-42.49-4.45-9.75-10.35-18.68-17.37-26.57-10.55-11.84-23.63-21.37-38.4-27.97C134.14,3.91,118.01.2,101.14.08c-.29-.01-.59-.08-.89-.08h-.11l-43.14.16v-.16H0v411h57v-197.9l1.26,1.6,150.29,195.3h71.42L127.66,211.52ZM100.14,57h.06c8.14,0,15.75,1.6,22.62,4.28,10.33,4.05,18.92,10.8,24.76,18.83,2.93,4.02,5.18,8.37,6.7,12.92,1.53,4.55,2.34,9.33,2.35,14.37,0,6.72-1.44,12.97-4.11,18.84-2.01,4.39-4.72,8.55-8.09,12.33-5.04,5.66-11.54,10.63-19.07,13.98-7.52,3.36-16.04,5.45-25.22,5.45h-43.14V57.16l43.14-.16Z"/>
      <path class="cls-1" d="M101.14.13h-.89.89Z"/>
      <polygon class="cls-1" points="58.29 214.69 57.07 214.69 57.07 213.1 58.29 214.69"/>
    </g>
    <g>
      <path class="cls-1" d="M1059.55,286.4h-.42v-3.86c0,1.2.39,2.86.42,3.86Z"/>
      <path class="cls-1" d="M1314.41,282.58c0,.51,0,1.02-.01,1.54v-1.54h.01Z"/>
      <path class="cls-1" d="M1314.13,2.4v281.72c0,18.96-4.41,37.09-12.05,53.36-7.86,16.72-19.13,31.52-33.21,43.44-9.39,7.94-20.13,14.59-31.71,19.61-15.26,6.62-32.04,10.35-50.04,10.42v.05c-13,0-26.32-2.09-38.52-5.97-12.2-3.87-23.48-9.51-33.69-16.55-20.42-14.1-36.23-33.75-45.7-56.62-5.88-14.19-9.44-29.65-9.88-45.74-.03-1.19-.21-2.38-.21-3.58V2.4h61v280.14c0,11.52,2.33,22.25,6.81,31.74,4.47,9.49,10.76,17.71,18.37,24.12,5.07,4.27,10.72,7.75,16.68,10.32,7.79,3.35,16.14,5.2,25.14,5.27v-.04c7,0,13.14-1.04,19.28-3,6.14-1.95,11.91-4.83,17.28-8.55,10.74-7.43,19.62-18.14,24.97-31.15,3.4-8.23,5.35-17.85,5.54-26.85h-.08V2.4h60Z"/>
    </g>
    <polygon class="cls-1" points="1556.27 207.61 1687.08 411 1618.74 411 1522.43 260.37 1426.51 410 1358.18 410 1488.59 207.11 1357.41 2 1424.43 2 1522.43 154.61 1620.82 2 1687.84 2 1556.27 207.61"/>
  </g>
</svg>