<?xml version="1.0" encoding="UTF-8"?>
<svg id="Layer_2" data-name="Layer 2" xmlns="http://www.w3.org/2000/svg" viewBox="0 0 3886.58 411">
  <defs>
    <style>
      .cls-1 {
        fill: #c9dee2;
      }
    </style>
  </defs>
  <g id="Layer_1-2" data-name="Layer 1">
    <g>
      <g>
        <polygon class="cls-1" points="1904.51 238 1928.88 289 1781.54 289 1806.72 238 1904.51 238"/>
        <polygon class="cls-1" points="2052.67 411 1987.18 411 1928.88 288.79 1904.51 237.66 1856.41 136.97 1806.72 237.57 1781.54 288.78 1721.3 411 1655.67 411 1856.67 .97 2052.67 411"/>
      </g>
      <g>
        <polygon class="cls-1" points="1170.78 238 1195.15 289 1047.81 289 1072.99 238 1170.78 238"/>
        <polygon class="cls-1" points="1318.94 411 1253.45 411 1195.15 288.79 1170.78 237.66 1122.68 136.97 1072.99 237.57 1047.81 288.78 987.57 411 921.94 411 1122.94 .97 1318.94 411"/>
      </g>
      <g>
        <path class="cls-1" d="M146,1v-.37c-1-.05-2.76.37-4.13.37h4.13Z"/>
        <path class="cls-1" d="M145,410.51v.49h-3.21c1.2,0,2.21-.46,3.21-.49Z"/>
        <path class="cls-1" d="M270.21,289c-.07-16-3.81-32.63-10.43-47.09-5.01-10.96-11.67-20.92-19.61-29.8-6-6.72-12.73-12.73-20.07-18.05,5.67-5.49,10.76-11.56,15.19-18.13,6.06-9.01,10.87-18.84,14.16-29.48,3.29-10.63,5.05-22.45,5.05-33.45h-.05c-.05-16-3.19-30.16-8.84-43.51-8.55-20.26-22.79-37.47-40.75-49.62-8.98-6.07-18.9-10.92-29.5-14.21-9.35-2.91-19.23-4.43-29.4-4.79-1.36-.05-2.72.13-4.09.13H0v410h141.79c1.2,0,2.4-.24,3.59-.27,16.09-.41,31.55-3.74,45.74-9.3,22.87-8.97,42.52-24.05,56.61-43.39,7.05-9.66,12.69-20.64,16.56-32.2,3.87-11.56,5.97-23.85,5.97-36.85h-.05ZM141.87,58c7.77,0,15.01,1.34,21.65,4.14,9.93,4.19,18.47,11.17,24.46,20.06,3,4.45,5.37,9.16,6.98,14.37,1.62,5.22,2.5,10.43,2.5,16.43h.03c-.05,8-1.61,14.96-4.37,21.53-4.21,10.04-11.32,18.69-20.21,24.72-4.45,3.01-9.54,5.42-14.76,7.04-4.72,1.47-9.16,2.36-15.16,2.52v.2H57V58h84.87ZM207.97,313.7c-2.57,5.64-6.04,10.92-10.32,15.72-6.41,7.21-14.63,13.48-24.12,17.71-9.49,4.24-20.21,6.87-31.74,6.87H57v-128h85v-.18s1,0,1-.02v.2h-1v.13c10,0,19.77,1.9,28.45,5.29,13.01,5.07,23.82,13.51,31.25,23.68,3.72,5.09,6.57,10.66,8.53,16.47,1.95,5.82,2.97,11.43,2.98,18.43h.04c-.07,8-1.92,16.32-5.28,23.7Z"/>
        <path class="cls-1" d="M143.45,225.8v.28h-1.61v-.26c.54,0,1.07,0,1.61-.02Z"/>
        <path class="cls-1" d="M143.45,225.8v.28h-1.61v-.26c.54,0,1.07,0,1.61-.02Z"/>
      </g>
      <g>
        <path class="cls-1" d="M1296.95,209.91c0,.64.02,1.28.04,1.91h-.06c0-.64,0-1.27.02-1.91Z"/>
        <path class="cls-1" d="M1510.73.82v.08c-1-.03-1.78-.05-2.67-.06.89,0,1.67-.02,2.67-.02Z"/>
        <path class="cls-1" d="M1296.93,207.44h.06c-.03,1-.04,1.75-.04,2.62-.02-.88-.02-1.62-.02-2.62Z"/>
        <path class="cls-1" d="M1497.76,410.99h0s-.36.01-.36.01c.12,0,.24,0,.36-.01Z"/>
        <path class="cls-1" d="M1497.4,411h-.9.9Z"/>
        <path class="cls-1" d="M1631.8,360.41c-18,15.75-38.85,28.4-61.71,37.11-22.48,8.58-46.9,13.32-72.33,13.47-.12.01-.24.01-.36.01-.3,0-.6,0-.9-.01-20.35-.12-40.06-3.33-58.6-9.19-18.93-5.98-36.64-14.72-52.66-25.72-32.05-22.02-57.4-53.1-72.6-89.67-9.57-23.03-15.2-48.25-15.76-74.59-.02-.63-.15-1.27-.15-1.91v-.08c0-.87.12-1.75.15-2.62.43-20.22,3.82-39.8,9.65-58.28,6.28-19.88,15.49-38.48,27.06-55.32,23.13-33.67,55.8-60.31,94.22-76.28,24.04-9.99,50.36-15.97,77.84-16.64.88-.03,1.77-.25,2.65-.25h.09c.89,0,1.78.23,2.67.26,20.3.54,39.93,4.25,58.35,10.49,20.04,6.8,38.66,16.75,55.28,29.17l-34.12,45.69c-11.92-8.9-25.2-15.95-39.46-20.78-13.46-4.57-27.8-7.15-42.79-7.42-15.41.25-30.21,2.66-44.17,6.93-14.77,4.51-28.61,11.1-41.15,19.43-25.1,16.66-44.97,40.24-56.81,67.8-7.58,17.64-11.9,36.89-12.24,57.25.19,14.59,2.45,28.59,6.48,41.78,4.21,13.81,10.37,26.73,18.15,38.45,15.56,23.44,37.59,42.01,63.32,53.06,16.98,7.29,35.55,11.36,55.21,11.45,18.67-.07,36.37-3.53,52.68-9.74,16.48-6.28,31.51-15.4,44.48-26.75l37.53,42.9Z"/>
        <path class="cls-1" d="M1508.37.84c-.88.01-1.64.02-2.64.05v-.07c1,0,1.76.01,2.64.02Z"/>
      </g>
      <polygon class="cls-1" points="3886.58 354 3886.58 411 3588.58 411 3588.58 1 3885.58 1 3885.58 58 3645.58 58 3645.58 181 3804.58 181 3804.58 238 3645.58 238 3645.58 354 3886.58 354"/>
      <polygon class="cls-1" points="612.06 354 612.06 411 314.06 411 314.06 1 611.06 1 611.06 58 371.06 58 371.06 181 530.06 181 530.06 238 371.06 238 371.06 354 612.06 354"/>
      <polyline class="cls-1" points="3132.23 1 3132.23 411 3189.23 411 3189.23 1"/>
      <g>
        <polygon class="cls-1" points="3540.4 1 3540.4 411 3483.1 411 3482.84 410.72 3294.4 121.51 3294.4 411 3237.4 411 3237.4 1 3294.85 1 3483.4 296.94 3483.4 1 3540.4 1"/>
        <polygon class="cls-1" points="3483.1 410.56 3483.06 410.56 3483.06 410.5 3483.1 410.56"/>
        <polygon class="cls-1" points="3294.85 .56 3294.81 .56 3294.84 .54 3294.85 .56"/>
      </g>
      <path class="cls-1" d="M2734.9,127.04c-14.94-36.65-39.88-67.89-71.5-90.07-15.81-11.09-33.3-19.91-52.02-25.96-18.71-6.04-38.64-9.3-59.21-9.29-27.43-.01-53.71,5.79-77.5,16.24-35.7,15.69-65.83,41.74-87.07,74.37-10.62,16.32-19.02,34.3-24.76,53.47-5.75,19.17-8.83,39.54-8.83,60.56,0,28.03,5.49,54.88,15.44,79.31,14.94,36.65,39.88,67.89,71.5,90.08,15.81,11.09,33.3,19.91,52.01,25.95,18.71,6.05,38.64,9.3,59.21,9.3,27.43.01,53.71-5.79,77.5-16.25,35.71-15.68,65.84-41.74,87.08-74.37,10.62-16.31,19.01-34.29,24.76-53.46,5.74-19.17,8.83-39.54,8.82-60.56.01-28.03-5.48-54.89-15.43-79.32ZM2682.11,264.17c-10.82,26.57-28.91,49.12-51.44,64.91-11.27,7.91-23.64,14.13-36.8,18.38-13.17,4.25-27.13,6.54-41.7,6.54-19.42-.01-37.77-4.06-54.58-11.44-12.59-5.53-24.3-12.94-34.79-21.92-15.74-13.48-28.7-30.51-37.71-49.92-9-19.41-14.07-41.18-14.08-64.36.01-20.61,4.01-40.09,11.23-57.81,10.82-26.57,28.9-49.12,51.44-64.92,11.27-7.9,23.64-14.12,36.8-18.37,13.17-4.25,27.12-6.54,41.69-6.54,19.42,0,37.78,4.06,54.58,11.43,12.6,5.54,24.31,12.95,34.8,21.93,15.73,13.48,28.7,30.5,37.7,49.91,9.01,19.42,14.08,41.19,14.08,64.37,0,20.6-4.01,40.09-11.22,57.81Z"/>
      <g>
        <path class="cls-1" d="M2240.21,211.52c5.49-1.29,10.82-2.95,15.97-4.97,20.17-7.92,37.53-21.18,50.01-38.29,6.24-8.56,11.25-18.09,14.68-28.34,3.45-10.25,5.31-21.22,5.31-32.5,0-15.04-3.32-29.51-9.25-42.49-4.45-9.75-10.35-18.68-17.37-26.57-10.55-11.84-23.63-21.37-38.4-27.97-14.47-6.47-30.6-10.18-47.47-10.31-.29-.01-.59-.08-.89-.08h-.11l-43.14.16v-.16h-57v411h57v-197.9l1.26,1.6,150.29,195.3h71.42l-152.3-198.48ZM2212.69,57h.06c8.14,0,15.75,1.6,22.62,4.28,10.33,4.05,18.92,10.8,24.76,18.83,2.93,4.02,5.18,8.37,6.7,12.92,1.53,4.55,2.34,9.33,2.35,14.37,0,6.72-1.44,12.97-4.11,18.84-2.01,4.39-4.72,8.55-8.09,12.33-5.04,5.66-11.54,10.63-19.07,13.98-7.52,3.36-16.04,5.45-25.22,5.45h-43.14V57.16l43.14-.16Z"/>
        <path class="cls-1" d="M2213.69.13h-.89.89Z"/>
        <polygon class="cls-1" points="2170.84 214.69 2169.62 214.69 2169.62 213.1 2170.84 214.69"/>
      </g>
      <polygon class="cls-1" points="3084.05 1 3084.05 58 2937.05 58 2937.05 411 2880.05 411 2880.05 58 2725.05 58 2725.05 1 3084.05 1"/>
      <polygon class="cls-1" points="1026.1 1 1026.1 58 879.1 58 879.1 411 822.1 411 822.1 58 667.1 58 667.1 1 1026.1 1"/>
    </g>
  </g>
</svg>