<?xml version="1.0" encoding="UTF-8"?>
<svg id="Layer_2" data-name="Layer 2" xmlns="http://www.w3.org/2000/svg" viewBox="0 0 4838.27 426.72">
  <defs>
    <style>
      .cls-1 {
        fill: #6EBAB4;
      }
    </style>
  </defs>
  <g id="Layer_1-2" data-name="Layer 1">
    <g>
      <path class="cls-1" d="M127.66,215.87c5.49-1.29,10.82-2.95,15.97-4.97,20.17-7.92,37.53-21.18,50.01-38.29,6.24-8.56,11.25-18.09,14.68-28.34,3.45-10.25,5.31-21.22,5.31-32.5,0-15.04-3.32-29.51-9.25-42.49-4.45-9.75-10.35-18.68-17.37-26.57-10.55-11.84-23.63-21.37-38.4-27.97-14.47-6.47-30.6-10.18-47.47-10.31-.29-.01-.59-.08-.89-.08h-.11l-43.14.16v-.16H0v411h57v-197.9l1.26,1.6,150.29,195.3h71.42L127.66,215.87ZM100.14,61.35h.06c8.14,0,15.75,1.6,22.62,4.28,10.33,4.05,18.92,10.8,24.76,18.83,2.93,4.02,5.18,8.37,6.7,12.92,1.53,4.55,2.34,9.33,2.35,14.37,0,6.72-1.44,12.97-4.11,18.84-2.01,4.39-4.72,8.55-8.09,12.33-5.04,5.66-11.54,10.63-19.07,13.98-7.52,3.36-16.04,5.45-25.22,5.45h-43.14V61.51l43.14-.16Z"/>
      <path class="cls-1" d="M101.14,4.48h-.89.89Z"/>
      <polygon class="cls-1" points="58.29 219.04 57.07 219.04 57.07 217.45 58.29 219.04"/>
    </g>
    <path class="cls-1" d="M1774.09,348.94c-12.53,6.31-26.68,9.88-41.67,9.88-51.29,0-92.87-41.58-92.87-92.87s41.58-92.87,92.87-92.87c15.02,0,29.2,3.57,41.75,9.89l22.12-52.12c-19.37-9.17-41.02-14.31-63.87-14.31-82.52,0-149.41,66.89-149.41,149.41s66.89,149.41,149.41,149.41c22.85,0,44.5-5.14,63.87-14.31v-.33l-22.2-51.78Z"/>
    <path class="cls-1" d="M260.45,265.94c0,82.52,66.89,149.41,149.41,149.41,82.52,0,149.41-66.89,149.41-149.41,0-82.52-66.89-149.41-149.41-149.41-82.52,0-149.41,66.89-149.41,149.41ZM316.99,265.94c0-51.29,41.58-92.87,92.87-92.87,51.29,0,92.87,41.58,92.87,92.87s-41.58,92.87-92.87,92.87c-51.29,0-92.87-41.58-92.87-92.87Z"/>
    <g>
      <polyline class="cls-1" points="831.39 0 831.39 415.35 888.39 415.35 888.39 0"/>
      <path class="cls-1" d="M738.52,116.53c-82.52,0-149.41,66.89-149.41,149.41s66.89,149.41,149.41,149.41,149.41-66.89,149.41-149.41-66.89-149.41-149.41-149.41ZM738.52,358.81c-51.29,0-92.87-41.58-92.87-92.87s41.58-92.87,92.87-92.87,92.87,41.58,92.87,92.87-41.58,92.87-92.87,92.87Z"/>
    </g>
    <g>
      <polyline class="cls-1" points="978.1 294.44 1192.21 294.44 1192.21 237.44 978.1 237.44"/>
      <path class="cls-1" d="M1160.39,320.38c-16.88,23.28-44.29,38.43-75.24,38.43-51.29,0-92.87-41.58-92.87-92.87s41.58-92.87,92.87-92.87,92.87,41.58,92.87,92.87c0,9.94-1.57,19.52-4.46,28.5h58.27c1.78-9.23,2.73-18.75,2.73-28.5,0-82.52-66.89-149.41-149.41-149.41s-149.41,66.89-149.41,149.41,66.89,149.41,149.41,149.41c52.57,0,98.8-27.16,125.43-68.21l-50.19-26.77Z"/>
    </g>
    <g>
      <polyline class="cls-1" points="1535.66 115.76 1535.66 415.35 1478.66 415.35 1478.66 115.76"/>
      <circle class="cls-1" cx="1507.16" cy="58" r="28.5"/>
    </g>
    <g>
      <g>
        <polygon class="cls-1" points="1900.64 292.19 1900.64 299.12 1897.18 295.66 1900.64 292.19"/>
        <polygon class="cls-1" points="1900.64 292.19 1900.64 299.12 1897.18 295.66 1900.64 292.19"/>
        <polygon class="cls-1" points="2077.59 115.28 2000.03 115.28 1900.64 215.06 1900.64 115.28 1843.64 115.28 1843.64 415.1 1900.64 414.87 1900.64 299.12 1897.18 295.66 1900.64 292.19 1900.64 299.12 2016.74 415.35 2097.49 415.35 1937.78 255.5 2077.59 115.28"/>
      </g>
      <polyline class="cls-1" points="1900.64 0 1900.64 118.81 1843.64 118.81 1843.64 0"/>
    </g>
    <g>
      <polyline class="cls-1" points="1338.91 415.35 1338.91 117.53 1281.91 117.53 1281.91 415.35"/>
      <path class="cls-1" d="M1431.32,174.32v-56.54c-82.52,0-149.41,66.89-149.41,149.41,0,.52.01,1.05.02,1.57h56.54c0-.52-.02-1.04-.02-1.57,0-51.29,41.58-92.87,92.87-92.87Z"/>
    </g>
    <g>
      <path class="cls-1" d="M2481.04,303.02c0,11.59-1.67,22.93-4.8,33.7-3.12,10.78-7.71,20.98-13.54,30.37-11.65,18.78-28.27,34.35-48.31,44.88-13.35,7.03-28.24,11.79-44.04,13.75-5.42.67-10.82,1-16.18,1-17.6,0-34.65-3.54-50.25-10-15.6-6.47-29.77-15.87-41.65-27.77-7.9-7.93-14.78-16.98-20.29-26.98-7.35-13.33-12.22-28.4-13.81-44.42l59.7-5.96c.59,5.85,2.03,11.3,4.23,16.43,2.19,5.13,5.15,9.93,8.79,14.32,7.27,8.78,17.34,15.87,28.85,20.06,7.68,2.8,15.95,4.32,24.43,4.32,2.91,0,5.84-.18,8.79-.54,6.46-.81,12.49-2.44,18.08-4.76,5.59-2.33,10.73-5.35,15.34-8.94,9.22-7.18,16.29-16.61,20.42-27.14,2.76-7.02,4.24-14.51,4.24-22.32,0-2.72-.18-5.49-.56-8.3-.64-4.74-1.76-8.49-3.21-11.74-1.45-3.25-3.25-6.06-5.58-8.81-1.56-1.83-3.36-3.62-5.47-5.4-2.8-2.37-6.14-4.71-10.03-6.99-5.18-3.04-11.31-5.96-18.19-8.73-9.17-3.71-19.63-7.16-30.79-10.61l.08-.27c-8.2-2.56-16.51-5.29-24.78-8.44-9.48-3.61-18.91-7.76-28.05-13-6.09-3.5-12.04-7.5-17.69-12.19-7.51-6.24-14.49-13.78-20.12-22.73-3.21-5.1-5.98-10.63-8.17-16.51-2.52-6.72-4.29-13.87-5.28-21.31-.69-5.1-1.03-10.19-1.03-15.23,0-10.9,1.58-21.56,4.53-31.68,2.95-10.12,7.28-19.71,12.77-28.52,10.99-17.63,26.64-32.23,45.48-42.1,6.28-3.29,12.92-6.05,19.84-8.22,6.93-2.17,14.14-3.75,21.56-4.67,5.09-.63,10.16-.94,15.18-.94,17.64,0,34.65,3.81,49.99,10.73,15.34,6.93,29.04,16.95,40.2,29.46,7.43,8.34,13.72,17.8,18.54,28.16l-54.4,25.32c-3.43-7.38-8.51-13.96-14.86-19.32-6.33-5.37-13.91-9.47-22.16-11.88-5.51-1.61-11.31-2.46-17.31-2.46-2.56,0-5.16.48-7.79.48h-.01c-5.75,1-11.13,2.16-16.1,4.22-4.97,2.07-9.54,4.74-13.63,7.92-8.19,6.35-14.44,14.68-18.09,23.92-2.43,6.17-3.73,12.74-3.74,19.58,0,2.38.16,4.79.49,7.24.56,4.13,1.53,7.32,2.75,10.08,1.24,2.76,2.75,5.12,4.76,7.48,1.34,1.57,2.91,3.12,4.76,4.67,2.46,2.07,5.43,4.15,8.91,6.18,4.65,2.72,10.2,5.35,16.47,7.86,8.35,3.36,17.94,6.51,28.21,9.66l-.09.28c9,2.82,18.09,5.82,27.13,9.27,10.19,3.91,20.31,8.39,30.07,14.01,6.49,3.76,12.83,8.03,18.82,13.03,7.98,6.66,15.34,14.66,21.28,24.13,3.39,5.4,6.31,11.26,8.63,17.48,2.65,7.12,4.53,14.69,5.59,22.6.73,5.46,1.09,10.9,1.09,16.29Z"/>
      <g>
        <polyline class="cls-1" points="4332.73 127.9 4332.73 426.72 4389.73 426.72 4389.73 127.9"/>
        <path class="cls-1" d="M4239.86,127.9c-82.52,0-149.41,66.89-149.41,149.41s66.89,149.41,149.41,149.41,149.41-66.89,149.41-149.41-66.89-149.41-149.41-149.41ZM4239.86,370.18c-51.29,0-92.87-41.58-92.87-92.87s41.58-92.87,92.87-92.87,92.87,41.58,92.87,92.87-41.58,92.87-92.87,92.87Z"/>
      </g>
      <g>
        <polyline class="cls-1" points="3648.69 11.37 3648.69 426.72 3591.69 426.72 3591.69 11.37"/>
        <path class="cls-1" d="M3592.15,277.31c0,82.52,66.89,149.41,149.41,149.41,82.52,0,149.41-66.89,149.41-149.41,0-82.52-66.89-149.41-149.41-149.41-82.52,0-149.41,66.89-149.41,149.41ZM3648.69,277.31c0-51.29,41.58-92.87,92.87-92.87,51.29,0,92.87,41.58,92.87,92.87,0,51.29-41.58,92.87-92.87,92.87-51.29,0-92.87-41.58-92.87-92.87Z"/>
      </g>
      <polyline class="cls-1" points="3545.61 11.37 3545.61 426.72 3488.61 426.72 3488.61 11.37"/>
      <path class="cls-1" d="M2799.88,277.31c0,82.52,66.89,149.41,149.41,149.41,82.52,0,149.41-66.89,149.41-149.41,0-82.52-66.89-149.41-149.41-149.41-82.52,0-149.41,66.89-149.41,149.41ZM2856.42,277.31c0-51.29,41.58-92.87,92.87-92.87,51.29,0,92.87,41.58,92.87,92.87,0,51.29-41.58,92.87-92.87,92.87-51.29,0-92.87-41.58-92.87-92.87Z"/>
      <path class="cls-1" d="M3143.71,277.31c0,82.52,66.89,149.41,149.41,149.41,82.52,0,149.41-66.89,149.41-149.41,0-82.52-66.89-149.41-149.41-149.41-82.52,0-149.41,66.89-149.41,149.41ZM3200.25,277.31c0-51.29,41.58-92.87,92.87-92.87,51.29,0,92.87,41.58,92.87,92.87,0,51.29-41.58,92.87-92.87,92.87-51.29,0-92.87-41.58-92.87-92.87Z"/>
      <g>
        <polyline class="cls-1" points="4781.27 11.37 4781.27 426.72 4838.27 426.72 4838.27 11.37"/>
        <path class="cls-1" d="M4688.4,127.9c-82.52,0-149.41,66.89-149.41,149.41s66.89,149.41,149.41,149.41,149.41-66.89,149.41-149.41-66.89-149.41-149.41-149.41ZM4688.4,370.18c-51.29,0-92.87-41.58-92.87-92.87s41.58-92.87,92.87-92.87,92.87,41.58,92.87,92.87-41.58,92.87-92.87,92.87Z"/>
      </g>
      <g>
        <path class="cls-1" d="M2590.04,11.37c.14,150.84.17,291.87,0,415.35h-57s0-415.35,0-415.35"/>
        <path class="cls-1" d="M2750.76,233.32c.14,70.06.16,135.56,0,192.91h-54.21s0-192.91,0-192.91"/>
        <path class="cls-1" d="M2590.15,234.73c0-29.38,23.82-53.2,53.2-53.2s53.2,23.82,53.2,53.2h54.32c0-59.38-48.14-107.52-107.52-107.52s-107.52,48.14-107.52,107.52h54.32Z"/>
      </g>
      <g>
        <polyline class="cls-1" points="4492.86 127.12 4492.86 426.72 4435.86 426.72 4435.86 127.12"/>
        <circle class="cls-1" cx="4464.36" cy="69.37" r="28.5"/>
      </g>
      <g>
        <polyline class="cls-1" points="3994.04 426.72 3994.04 128.9 3937.04 128.9 3937.04 426.72"/>
        <path class="cls-1" d="M4086.45,185.68v-56.54c-82.52,0-149.41,66.89-149.41,149.41,0,.52.01,1.05.02,1.57h56.54c0-.52-.02-1.04-.02-1.57,0-51.29,41.58-92.87,92.87-92.87Z"/>
      </g>
    </g>
  </g>
</svg>