<?xml version="1.0" encoding="UTF-8"?>
<svg id="Layer_2" data-name="Layer 2" xmlns="http://www.w3.org/2000/svg" viewBox="0 0 653.05 158">
  <defs>
    <style>
      .cls-1 {
        fill: #5a8ea8;
      }

      .cls-2 {
        fill: #8ba4a5;
      }
    </style>
  </defs>
  <g id="Layer_1-2" data-name="Layer 1">
    <g>
      <path class="cls-1" d="M562.78.17l-35.17,71.74h11.48l10.48-21.26h25.9l10.14,21.26h11.46L562.78.17ZM553.96,41.73l.08-.16,8.69-17.6,8.42,17.62.07.14h-17.26Z"/>
      <polygon class="cls-1" points="197.27 61.94 197.27 71.91 145.12 71.91 145.12 .17 197.09 .17 197.09 10.15 155.1 10.15 155.1 31.67 182.92 31.67 182.92 41.64 155.1 41.64 155.1 61.94 197.27 61.94"/>
      <polygon class="cls-1" points="416.07 61.94 416.07 71.91 363.93 71.91 363.93 .17 415.9 .17 415.9 10.15 373.9 10.15 373.9 31.67 401.72 31.67 401.72 41.64 373.9 41.64 373.9 61.94 416.07 61.94"/>
      <polyline class="cls-1" points="0 .17 0 71.91 9.97 71.91 9.97 .17"/>
      <polygon class="cls-1" points="469.3 61.94 469.3 71.91 428.18 71.91 423.1 71.91 423.1 .17 433.08 .17 433.08 61.94 469.3 61.94"/>
      <polygon class="cls-1" points="69.61 .17 69.61 71.91 59.58 71.91 59.53 71.86 26.56 21.26 26.56 71.91 16.59 71.91 16.59 .17 26.64 .17 59.63 51.96 59.63 .17 69.61 .17"/>
      <polygon class="cls-1" points="26.64 .1 26.64 .1 26.64 .09 26.64 .1"/>
      <path class="cls-1" d="M226.21,37.01c.96-.23,1.89-.52,2.79-.87,3.53-1.39,6.57-3.71,8.75-6.7,1.09-1.5,1.97-3.17,2.57-4.96.6-1.79.93-3.71.93-5.69,0-2.63-.58-5.16-1.62-7.43-.78-1.71-1.81-3.27-3.04-4.65-1.85-2.07-4.13-3.74-6.72-4.89-2.53-1.13-5.35-1.78-8.31-1.8-.05,0-.1-.01-.16-.01h-.02l-7.55.03v-.03h-9.97v71.91h9.97v-34.63l.22.28,26.3,34.17h12.5l-26.65-34.73ZM221.4,9.97h.01c1.42,0,2.76.28,3.96.75,1.81.71,3.31,1.89,4.33,3.3.51.7.91,1.46,1.17,2.26.27.8.41,1.63.41,2.51,0,1.18-.25,2.27-.72,3.3-.35.77-.83,1.5-1.42,2.16-.88.99-2.02,1.86-3.34,2.45-1.32.59-2.81.95-4.41.95h-7.55V10l7.55-.03Z"/>
      <path class="cls-1" d="M221.57.02h-.16.16Z"/>
      <polygon class="cls-1" points="214.08 37.56 213.86 37.56 213.86 37.29 214.08 37.56"/>
      <path class="cls-1" d="M626.4,37.1c.96-.23,1.89-.52,2.79-.87,3.53-1.39,6.57-3.71,8.75-6.7,1.09-1.5,1.97-3.17,2.57-4.96.6-1.79.93-3.71.93-5.69,0-2.63-.58-5.16-1.62-7.43-.78-1.71-1.81-3.27-3.04-4.65-1.85-2.07-4.13-3.74-6.72-4.89-2.53-1.13-5.35-1.78-8.31-1.8-.05,0-.1-.01-.16-.01h-.02l-7.55.03v-.03h-9.97v71.91h9.97v-34.63l.22.28,26.3,34.17h12.5l-26.65-34.73ZM621.58,10.06h.01c1.42,0,2.76.28,3.96.75,1.81.71,3.31,1.89,4.33,3.3.51.7.91,1.46,1.17,2.26.27.8.41,1.63.41,2.51,0,1.18-.25,2.27-.72,3.3-.35.77-.83,1.5-1.42,2.16-.88.99-2.02,1.86-3.34,2.45-1.32.59-2.81.95-4.41.95h-7.55V10.09l7.55-.03Z"/>
      <path class="cls-1" d="M621.76.11h-.16.16Z"/>
      <polygon class="cls-1" points="614.26 37.65 614.05 37.65 614.05 37.37 614.26 37.65"/>
      <path class="cls-1" d="M292.88,50.27c0,2.03-.29,4.01-.84,5.9-.55,1.89-1.35,3.67-2.37,5.31-2.04,3.29-4.95,6.01-8.45,7.85-2.34,1.23-4.94,2.06-7.71,2.41-.95.12-1.89.17-2.83.17-3.08,0-6.06-.62-8.79-1.75-2.73-1.13-5.21-2.78-7.29-4.86-1.38-1.39-2.59-2.97-3.55-4.72-1.29-2.33-2.14-4.97-2.42-7.77l10.45-1.04c.1,1.02.36,1.98.74,2.87.38.9.9,1.74,1.54,2.51,1.27,1.54,3.03,2.78,5.05,3.51,1.34.49,2.79.76,4.27.76.51,0,1.02-.03,1.54-.09,1.13-.14,2.19-.43,3.16-.83.98-.41,1.88-.94,2.68-1.56,1.61-1.26,2.85-2.91,3.57-4.75.48-1.23.74-2.54.74-3.91,0-.48-.03-.96-.1-1.45-.11-.83-.31-1.49-.56-2.05-.25-.57-.57-1.06-.98-1.54-.27-.32-.59-.63-.96-.94-.49-.41-1.07-.82-1.75-1.22-.91-.53-1.98-1.04-3.18-1.53-1.6-.65-3.43-1.25-5.39-1.86v-.05c-1.42-.45-2.87-.93-4.32-1.48-1.66-.63-3.31-1.36-4.91-2.27-1.07-.61-2.11-1.31-3.1-2.13-1.31-1.09-2.54-2.41-3.52-3.98-.56-.89-1.05-1.86-1.43-2.89-.44-1.18-.75-2.43-.92-3.73-.12-.89-.18-1.78-.18-2.66,0-1.91.28-3.77.79-5.54.52-1.77,1.27-3.45,2.23-4.99,1.92-3.08,4.66-5.64,7.96-7.37,1.1-.58,2.26-1.06,3.47-1.44,1.21-.38,2.47-.66,3.77-.82.89-.11,1.78-.16,2.66-.16,3.09,0,6.06.67,8.75,1.88,2.68,1.21,5.08,2.97,7.03,5.15,1.3,1.46,2.4,3.11,3.24,4.93l-9.52,4.43c-.6-1.29-1.49-2.44-2.6-3.38-1.11-.94-2.43-1.66-3.88-2.08-.96-.28-1.98-.43-3.03-.43-.45,0-.9.08-1.36.08h0c-1.01.17-1.95.38-2.82.74-.87.36-1.67.83-2.38,1.39-1.43,1.11-2.53,2.57-3.17,4.19-.43,1.08-.65,2.23-.65,3.43,0,.42.03.84.09,1.27.1.72.27,1.28.48,1.76.22.48.48.9.83,1.31.23.27.51.55.83.82.43.36.95.73,1.56,1.08.81.48,1.78.94,2.88,1.38,1.46.59,3.14,1.14,4.94,1.69l-.02.05c1.57.49,3.17,1.02,4.75,1.62,1.78.68,3.55,1.47,5.26,2.45,1.14.66,2.24,1.4,3.29,2.28,1.4,1.17,2.68,2.57,3.72,4.22.59.94,1.1,1.97,1.51,3.06.46,1.25.79,2.57.98,3.95.13.96.19,1.91.19,2.85Z"/>
      <polygon class="cls-1" points="138.86 .17 138.86 10.15 113.14 10.15 113.14 71.91 103.17 71.91 103.17 10.15 76.05 10.15 76.05 .17 138.86 .17"/>
      <polygon class="cls-1" points="358.24 .17 358.24 10.15 332.52 10.15 332.52 71.91 322.55 71.91 322.55 10.15 295.43 10.15 295.43 .17 358.24 .17"/>
      <polygon class="cls-1" points="521.57 61.94 521.57 71.91 480.45 71.91 475.37 71.91 475.37 .17 485.35 .17 485.35 61.94 521.57 61.94"/>
    </g>
    <g>
      <path class="cls-2" d="M295.64,122.82c0,.11,0,.22,0,.33h-.01c0-.11,0-.22,0-.33Z"/>
      <path class="cls-2" d="M333.05,86.23h0c-.17,0-.31,0-.47,0,.16,0,.29,0,.47,0Z"/>
      <path class="cls-2" d="M295.64,122.38h.01c0,.17,0,.31,0,.46,0-.15,0-.28,0-.46Z"/>
      <path class="cls-2" d="M330.78,158h0s-.06,0-.06,0c.02,0,.04,0,.06,0Z"/>
      <path class="cls-2" d="M330.72,158h-.16.16Z"/>
      <path class="cls-2" d="M354.23,149.15c-3.15,2.76-6.8,4.97-10.8,6.49-3.93,1.5-8.21,2.33-12.66,2.36-.02,0-.04,0-.06,0-.05,0-.1,0-.16,0-3.56-.02-7.01-.58-10.25-1.61-3.31-1.05-6.41-2.58-9.21-4.5-5.61-3.85-10.04-9.29-12.7-15.69-1.67-4.03-2.66-8.44-2.76-13.05,0-.11-.03-.22-.03-.33h0c0-.17.02-.32.03-.47.08-3.54.67-6.96,1.69-10.2,1.1-3.48,2.71-6.73,4.73-9.68,4.05-5.89,9.76-10.55,16.49-13.35,4.21-1.75,8.81-2.79,13.62-2.91.15,0,.31-.04.46-.04h.02c.16,0,.31.04.47.05,3.55.09,6.99.74,10.21,1.84,3.51,1.19,6.76,2.93,9.67,5.1l-5.97,7.99c-2.09-1.56-4.41-2.79-6.9-3.64-2.36-.8-4.86-1.25-7.49-1.3-2.7.04-5.29.47-7.73,1.21-2.58.79-5.01,1.94-7.2,3.4-4.39,2.92-7.87,7.04-9.94,11.86-1.33,3.09-2.08,6.45-2.14,10.02.03,2.55.43,5,1.13,7.31.74,2.42,1.81,4.68,3.18,6.73,2.72,4.1,6.58,7.35,11.08,9.28,2.97,1.28,6.22,1.99,9.66,2,3.27-.01,6.36-.62,9.22-1.7,2.88-1.1,5.51-2.69,7.78-4.68l6.57,7.51Z"/>
      <path class="cls-2" d="M332.64,86.23c-.15,0-.29,0-.46,0h0c.17-.01.31-.01.46,0Z"/>
      <polygon class="cls-2" points="604.7 148.03 604.7 158 552.56 158 552.56 86.26 604.52 86.26 604.52 96.24 562.53 96.24 562.53 117.76 590.35 117.76 590.35 127.73 562.53 127.73 562.53 148.03 604.7 148.03"/>
      <path class="cls-2" d="M486.45,123.15h-.01c0-.11,0-.22,0-.33,0,.11,0,.22,0,.33Z"/>
      <path class="cls-2" d="M486.44,122.38h0c0,.17,0,.3,0,.45,0-.15,0-.27,0-.45Z"/>
      <path class="cls-2" d="M521.58,158h0s-.06,0-.06,0c.02,0,.04,0,.06,0Z"/>
      <path class="cls-2" d="M521.36,158c.05,0,.11,0,.16,0h-.16Z"/>
      <polygon class="cls-2" points="545.02 149.28 545.02 149.28 545.02 149.28 545.02 149.28"/>
      <path class="cls-2" d="M545.07,122.73v26.55l-.08.04c-3.09,2.67-6.73,4.83-10.71,6.33-3.94,1.48-8.24,2.32-12.7,2.35-.02,0-.05,0-.07,0-.05,0-.11,0-.16,0-3.56-.02-7.01-.58-10.26-1.61-3.31-1.05-6.41-2.58-9.21-4.5-5.61-3.85-10.04-9.29-12.7-15.69-1.67-4.03-2.63-8.44-2.73-13.05,0-.11,0-.22,0-.33v-.02c0-.15,0-.3,0-.45.08-3.54.65-6.96,1.68-10.2,1.1-3.48,2.7-6.73,4.73-9.68,4.05-5.89,9.76-10.55,16.48-13.35,4.43-1.84,9.3-2.9,14.39-2.92.04,0,.07-.03.1-.03h.07c3.71,0,7.29.71,10.63,1.89,3.39,1.2,6.54,2.97,9.33,5.15l-6.14,7.87c-1.98-1.54-4.18-2.76-6.53-3.59-2.33-.82-4.8-1.27-7.39-1.28-2.84,0-5.56.43-8.12,1.22-2.59.79-5.01,1.94-7.2,3.4-4.39,2.92-7.87,7.04-9.94,11.86-1.33,3.09-2.08,6.46-2.14,10.02.03,2.55.43,5,1.13,7.31.74,2.42,1.82,4.68,3.18,6.73,2.72,4.1,6.58,7.35,11.08,9.28,2.97,1.28,6.22,1.99,9.66,2,3.26-.01,6.44-.63,9.32-1.71,1.51-.57,2.91-1.27,4.31-2.07v-11.54h-7.52v-9.97h17.5Z"/>
      <path class="cls-2" d="M523.84,86.23s-.07,0-.1,0h0s.1,0,.1,0Z"/>
      <polygon class="cls-2" points="545.02 149.28 545.02 149.32 544.97 149.32 545.02 149.28"/>
      <polygon class="cls-2" points="371.46 125.72 371.46 126.93 370.86 126.33 371.46 125.72"/>
      <polygon class="cls-2" points="416.63 158 402.5 158 371.46 126.93 371.46 125.72 370.86 126.33 371.46 126.93 371.46 158 361.49 158 361.49 86.26 371.46 86.26 371.46 112.22 397.15 86.44 410.73 86.44 377.96 119.3 416.63 158"/>
      <polygon class="cls-2" points="371.46 125.72 371.46 126.93 370.86 126.33 371.46 125.72"/>
      <path class="cls-2" d="M248.59,97.65c-1.43-3.37-3.8-6.22-6.79-8.24-1.49-1.01-3.15-1.81-4.91-2.36-1.71-.53-3.53-.77-5.41-.79-.04,0-.1,0-.14,0h-16.38v71.74h9.97v-34.29h6.37s.06,0,.08,0c2.55-.01,4.99-.53,7.22-1.48,3.37-1.43,6.22-3.8,8.24-6.79,1.01-1.5,1.81-3.15,2.36-4.91.55-1.77.84-3.64.84-5.57,0-2.58-.52-5.05-1.48-7.3ZM239.4,108.37c-.66,1.57-1.78,2.92-3.18,3.87-.7.47-1.47.85-2.29,1.1-.82.26-1.69.39-2.61.39h-6.37v-17.55l6.37.05h0c1.22,0,2.36.22,3.41.66,1.57.66,2.92,1.77,3.87,3.17.47.7.85,1.46,1.1,2.28.26.82.39,1.69.39,2.61,0,1.23-.25,2.36-.69,3.41Z"/>
      <path class="cls-2" d="M231.4,158h0s-.08,0-.08,0c.03,0,.06,0,.08,0Z"/>
      <path class="cls-2" d="M653.05,136.36c0,2.03-.29,4.01-.84,5.9-.55,1.89-1.35,3.67-2.37,5.31-2.04,3.29-4.95,6.01-8.45,7.85-2.34,1.23-4.94,2.06-7.71,2.41-.95.12-1.89.17-2.83.17-3.08,0-6.06-.62-8.79-1.75-2.73-1.13-5.21-2.78-7.29-4.86-1.38-1.39-2.59-2.97-3.55-4.72-1.29-2.33-2.14-4.97-2.42-7.77l10.45-1.04c.1,1.02.36,1.98.74,2.87.38.9.9,1.74,1.54,2.51,1.27,1.54,3.03,2.78,5.05,3.51,1.34.49,2.79.76,4.27.76.51,0,1.02-.03,1.54-.09,1.13-.14,2.19-.43,3.16-.83.98-.41,1.88-.94,2.68-1.56,1.61-1.26,2.85-2.91,3.57-4.75.48-1.23.74-2.54.74-3.91,0-.48-.03-.96-.1-1.45-.11-.83-.31-1.49-.56-2.05s-.57-1.06-.98-1.54c-.27-.32-.59-.63-.96-.94-.49-.41-1.07-.82-1.75-1.22-.91-.53-1.98-1.04-3.18-1.53-1.6-.65-3.43-1.25-5.39-1.86v-.05c-1.42-.45-2.87-.93-4.32-1.48-1.66-.63-3.31-1.36-4.91-2.27-1.07-.61-2.11-1.31-3.1-2.13-1.31-1.09-2.54-2.41-3.52-3.98-.56-.89-1.05-1.86-1.43-2.89-.44-1.18-.75-2.43-.92-3.73-.12-.89-.18-1.78-.18-2.66,0-1.91.28-3.77.79-5.54s1.27-3.45,2.23-4.99c1.92-3.08,4.66-5.64,7.96-7.37,1.1-.58,2.26-1.06,3.47-1.44,1.21-.38,2.47-.66,3.77-.82.89-.11,1.78-.16,2.66-.16,3.09,0,6.06.67,8.75,1.88,2.68,1.21,5.08,2.97,7.03,5.15,1.3,1.46,2.4,3.11,3.24,4.93l-9.52,4.43c-.6-1.29-1.49-2.44-2.6-3.38-1.11-.94-2.43-1.66-3.88-2.08-.96-.28-1.98-.43-3.03-.43-.45,0-.9.08-1.36.08h0c-1.01.17-1.95.38-2.82.74-.87.36-1.67.83-2.38,1.39-1.43,1.11-2.53,2.57-3.17,4.19-.43,1.08-.65,2.23-.65,3.43,0,.42.03.84.09,1.27.1.72.27,1.28.48,1.76.22.48.48.9.83,1.31.23.27.51.55.83.82.43.36.95.73,1.56,1.08.81.48,1.78.94,2.88,1.38,1.46.59,3.14,1.14,4.94,1.69l-.02.05c1.57.49,3.17,1.02,4.75,1.62,1.78.68,3.55,1.47,5.26,2.45,1.14.66,2.24,1.4,3.29,2.28,1.4,1.17,2.68,2.57,3.72,4.22.59.94,1.1,1.97,1.51,3.06.46,1.25.79,2.57.98,3.95.13.96.19,1.91.19,2.85Z"/>
      <path class="cls-2" d="M457.72,86.26l-35.17,71.74h11.48l10.48-21.26h25.9l10.14,21.26h11.46l-34.29-71.74ZM448.9,127.81l.08-.16,8.69-17.6,8.42,17.62.07.14h-17.26Z"/>
      <path class="cls-2" d="M267.57,86.26l-35.17,71.74h11.48l10.48-21.26h25.9l10.14,21.26h11.46l-34.29-71.74ZM258.75,127.81l.08-.16,8.69-17.6,8.42,17.62.07.14h-17.26Z"/>
    </g>
  </g>
</svg>