<?xml version="1.0" encoding="UTF-8"?>
<svg id="Layer_2" data-name="Layer 2" xmlns="http://www.w3.org/2000/svg" viewBox="0 0 166.25 166.25">
  <defs>
    <style>
      .cls-1, .cls-2 {
        fill: none;
      }

      .cls-2 {
        stroke: #0aaac3;
        stroke-miterlimit: 10;
        stroke-width: 5px;
      }

      .cls-3 {
        fill: #0aaac3;
      }
    </style>
  </defs>
  <g id="_2" data-name="2">
    <g>
      <rect class="cls-1" x="0" y="0" width="166.25" height="166.25"/>
      <g>
        <line class="cls-2" x1="153.61" y1="83.85" x2="23.49" y2="83.85"/>
        <polygon class="cls-3" points="19.96 83.9 75.47 51.85 75.47 115.95 19.96 83.9"/>
      </g>
      <g>
        <rect class="cls-3" x="113.68" y="128.25" width="0" height=".08"/>
        <rect class="cls-3" x="113.68" y="128.25" width="0" height=".08"/>
        <path class="cls-3" d="M123.76,133.19v.08s0,.03,0,.03c0,.97-.16,1.91-.46,2.79-.3.89-.75,1.71-1.3,2.45-1.11,1.48-2.65,2.63-4.45,3.32-1.19.45-2.52.7-3.84.71h0c-1.4.01-2.68-.24-3.88-.7-1.8-.69-3.34-1.84-4.45-3.32-.55-.74-1-1.6-1.3-2.48-.3-.89-.47-1.75-.47-2.84h4.48c0,.78.15,1.32.42,1.89.2.43.47.86.81,1.22.5.55,1.17,1.03,1.92,1.35.74.32,1.54.51,2.48.52h0c.86-.01,1.73-.2,2.48-.52.75-.32,1.38-.79,1.89-1.34.34-.37.61-.8.81-1.23.27-.58.41-1.11.41-1.89h0c0-.47-.09-1.03-.24-1.47-.15-.45-.38-.85-.67-1.25-.58-.78-1.43-1.42-2.45-1.81-.68-.26-1.44-.38-2.22-.38v-.08.07h-3.59v-4.37h3.51v-.02c.78,0,1.51-.12,2.18-.38,1.01-.38,1.84-1.02,2.42-1.79.29-.38.51-.77.66-1.21.15-.43.23-.97.23-1.44h0c0-.78-.14-1.29-.41-1.86-.2-.43-.47-.84-.8-1.2-.5-.54-1.15-1.01-1.89-1.33s-1.54-.51-2.48-.51h0c-.86,0-1.68.17-2.41.49-.74.32-1.36.78-1.86,1.32-.33.36-.6.76-.8,1.19-.27.57-.41,1.13-.41,1.83h-4.42c0-1.01.16-1.89.46-2.76.3-.87.74-1.68,1.28-2.41,1.09-1.46,2.62-2.59,4.39-3.27,1.18-.45,2.5-.7,3.83-.7h0c1.33.02,2.61.26,3.79.71,1.77.68,3.3,1.81,4.39,3.27.55.73.98,1.54,1.28,2.41.3.86.45,1.8.45,2.75v.1c0,1.28-.28,2.5-.8,3.6-.39.83-.9,1.59-1.52,2.26-.34.37-.72.72-1.12,1.04.48.36.92.76,1.32,1.19.62.68,1.15,1.45,1.54,2.29.53,1.12.82,2.37.82,3.66Z"/>
        <path class="cls-3" d="M154.5,120.44c-1.16-2.86-3.11-5.29-5.57-7.02-1.23-.86-2.6-1.55-4.06-2.02-1.46-.47-3.01-.73-4.62-.72-2.14,0-4.19.45-6.04,1.27-2.78,1.22-5.13,3.25-6.79,5.8-.83,1.27-1.48,2.67-1.93,4.17-.45,1.49-.69,3.08-.69,4.72,0,2.19.43,4.28,1.2,6.18,1.16,2.86,3.11,5.29,5.57,7.02,1.23.86,2.6,1.55,4.05,2.02,1.46.47,3.01.73,4.62.73,2.14,0,4.19-.45,6.04-1.27,2.78-1.22,5.13-3.25,6.79-5.8.83-1.27,1.48-2.67,1.93-4.17.45-1.49.69-3.08.69-4.72,0-2.19-.43-4.28-1.2-6.18ZM150.38,131.13c-.84,2.07-2.25,3.83-4.01,5.06-.88.62-1.84,1.1-2.87,1.43-1.03.33-2.12.51-3.25.51-1.51,0-2.94-.32-4.26-.89-.98-.43-1.89-1.01-2.71-1.71-1.23-1.05-2.24-2.38-2.94-3.89-.7-1.51-1.1-3.21-1.1-5.02,0-1.61.31-3.13.88-4.51.84-2.07,2.25-3.83,4.01-5.06.88-.62,1.84-1.1,2.87-1.43,1.03-.33,2.11-.51,3.25-.51,1.51,0,2.95.32,4.26.89.98.43,1.9,1.01,2.71,1.71,1.23,1.05,2.24,2.38,2.94,3.89.7,1.51,1.1,3.21,1.1,5.02,0,1.61-.31,3.13-.87,4.51Z"/>
      </g>
    </g>
  </g>
</svg>